# Blender 4.2.1 LTS
# www.blender.org
mtllib bluevolta_camera.mtl
o Blue_Volta-eROV.simplified.V2_OBJ2_11719-9033
v -0.008806 0.668361 -0.215034
v -0.008557 0.720835 -0.193349
v -0.011578 0.657614 -0.191081
v -0.011381 0.708379 -0.166380
v -0.009746 0.493753 -0.269436
v -0.016614 0.507949 -0.301148
v -0.010410 0.716743 -0.190364
v -0.020165 0.705008 -0.161017
v -0.023330 0.677417 -0.235194
v -0.023571 0.729130 -0.211944
v -0.030328 0.650031 -0.174177
v -0.037421 0.700517 -0.147620
v -0.044379 0.731757 -0.219024
v -0.038090 0.513771 -0.314157
v -0.039323 0.483557 -0.246655
v -0.030417 0.491504 -0.283994
v -0.031168 0.496150 -0.274793
v -0.036035 0.468263 -0.290523
v -0.035247 0.489114 -0.288442
v -0.048622 0.680676 -0.242381
v -0.038028 0.495030 -0.291870
v -0.038695 0.484474 -0.278077
v -0.040284 0.487154 -0.274276
v -0.043643 0.474996 -0.305563
v -0.037746 0.493107 -0.287575
v -0.049181 0.505712 -0.296150
v -0.048034 0.699842 -0.152237
v -0.044660 0.473682 -0.302626
v -0.046343 0.487268 -0.274528
v -0.047452 0.492833 -0.296749
v -0.056534 0.649019 -0.171938
v -0.046123 0.465402 -0.284132
v -0.051806 0.496282 -0.294666
v -0.051710 0.483220 -0.275276
v -0.055571 0.494137 -0.289875
v -0.054970 0.465774 -0.284962
v -0.054503 0.487585 -0.275238
v -0.067004 0.729140 -0.213452
v -0.058918 0.492652 -0.286559
v -0.072236 0.703665 -0.155094
v -0.066843 0.512075 -0.310365
v -0.057961 0.470631 -0.295815
v -0.060439 0.494557 -0.271233
v -0.058626 0.488827 -0.287800
v -0.070634 0.486622 -0.253507
v -0.073224 0.676644 -0.233265
v -0.075599 0.705268 -0.164445
v -0.078347 0.655011 -0.185332
v -0.081245 0.721917 -0.198879
v -0.085932 0.713604 -0.177377
v -0.085457 0.499750 -0.282835
v -0.086804 0.669010 -0.212866
v -0.084504 0.662329 -0.204586
vn -0.0000 -0.9127 -0.4086
vn -0.0000 -0.9127 -0.4085
vn -0.0000 -0.9128 -0.4085
vn -0.9829 -0.1102 0.1477
vn -0.9829 -0.1071 0.1497
vn -0.9387 -0.1789 0.2948
vn -0.9100 -0.1540 0.3850
vn -0.8274 -0.2106 0.5207
vn -0.8276 -0.2131 0.5193
vn -0.6257 -0.3600 0.6920
vn -0.6256 -0.3577 0.6933
vn -0.4858 -0.3962 0.7791
vn -0.3081 -0.3455 0.8864
vn -0.1451 -0.3676 0.9186
vn -0.1454 -0.3688 0.9181
vn 0.0110 -0.4370 0.8994
vn 0.0105 -0.4387 0.8986
vn 0.1774 -0.4479 0.8763
vn 0.6412 -0.2905 0.7103
vn 0.6398 -0.2820 0.7149
vn 0.7571 -0.2064 0.6199
vn 0.5478 -0.3864 0.7420
vn 0.6792 -0.3155 0.6627
vn 0.6795 -0.3239 0.6583
vn 0.9820 -0.0917 0.1652
vn 0.9820 -0.0850 0.1688
vn 0.9997 0.0018 0.0253
vn 0.9841 -0.0909 0.1526
vn 0.9999 -0.0005 0.0107
vn 0.9999 -0.0066 0.0077
vn 0.8789 0.1722 -0.4449
vn 0.8791 0.1778 -0.4423
vn 0.7871 0.2491 -0.5643
vn 0.8514 0.2034 -0.4835
vn 0.7518 0.2791 -0.5974
vn 0.7516 0.2734 -0.6002
vn 0.3775 0.3749 -0.8467
vn 0.3777 0.3810 -0.8439
vn 0.2175 0.4169 -0.8825
vn 0.4177 0.3393 -0.8428
vn 0.2607 0.3882 -0.8839
vn 0.2600 0.3811 -0.8872
vn -0.2962 0.4115 -0.8619
vn -0.2954 0.4191 -0.8585
vn -0.4498 0.4154 -0.7907
vn -0.1817 0.3566 -0.9164
vn -0.3418 0.3721 -0.8630
vn -0.3429 0.3636 -0.8661
vn -0.6938 0.3347 -0.6377
vn -0.8049 0.2670 -0.5300
vn -0.8049 0.2679 -0.5294
vn -0.8007 0.2591 -0.5401
vn -0.8006 0.2576 -0.5410
vn -0.8898 0.1919 -0.4141
vn -0.9566 0.1733 -0.2343
vn -0.9913 0.0976 -0.0879
vn -0.9913 0.0991 -0.0869
vn -0.5579 0.6657 -0.4955
vn -0.0982 0.9074 0.4086
vn -0.0981 0.9074 0.4087
vn -0.0981 0.9073 0.4089
vn -0.9111 0.1715 -0.3747
vn -0.9686 0.1139 -0.2210
vn -0.9110 0.1739 -0.3739
vn -0.8932 0.1732 -0.4150
vn -0.8932 0.1744 -0.4145
vn -0.8018 0.2249 -0.5537
vn -0.2935 0.3869 -0.8742
vn -0.4548 0.3663 -0.8118
vn -0.2935 0.3874 -0.8739
vn -0.2284 0.3824 -0.8953
vn -0.2283 0.3827 -0.8952
vn -0.0562 0.3881 -0.9199
vn 0.3797 0.3762 -0.8452
vn 0.2135 0.4009 -0.8909
vn 0.3797 0.3763 -0.8451
vn 0.4783 0.3441 -0.8080
vn 0.6233 0.3015 -0.7215
vn 0.8803 0.1926 -0.4335
vn 0.7847 0.2551 -0.5649
vn 0.9602 0.0922 -0.2637
vn 0.9601 0.0912 -0.2642
vn 0.9939 0.0226 -0.1079
vn 0.9815 -0.0713 0.1776
vn 0.9998 -0.0050 0.0176
vn 0.9815 -0.0728 0.1770
vn 0.6388 -0.3352 0.6925
vn 0.7621 -0.2711 0.5879
vn 0.6386 -0.3330 0.6938
vn 0.7086 -0.3013 0.6381
vn 0.7085 -0.3005 0.6386
vn 0.5757 -0.3553 0.7364
vn 0.0064 -0.4087 0.9126
vn 0.1797 -0.3976 0.8998
vn 0.0064 -0.4085 0.9127
vn -0.1476 -0.4221 0.8944
vn -0.1476 -0.4225 0.8942
vn -0.3169 -0.4078 0.8563
vn -0.6282 -0.3143 0.7117
vn -0.4837 -0.3546 0.8002
vn -0.6282 -0.3151 0.7114
vn -0.8679 -0.2214 0.4446
vn -0.8679 -0.2232 0.4437
vn -0.9409 -0.1539 0.3018
vn -0.9793 -0.0815 0.1854
vn -0.9293 -0.1577 0.3339
vn -0.9793 -0.0853 0.1836
vn -0.9563 0.0636 0.2853
vn -0.9558 0.0701 0.2856
vn -0.9254 0.0495 0.3757
vn -0.3833 -0.7376 -0.5559
vn -0.3833 -0.7329 -0.5621
vn -0.3739 -0.7981 -0.4725
vn -0.1073 0.8368 0.5369
vn -0.0482 0.8100 0.5844
vn -0.1400 0.8491 0.5094
vn -0.3577 0.6578 0.6629
vn -0.4207 0.6761 0.6049
vn -0.4403 0.6906 0.5738
vn -0.9493 0.2862 -0.1298
vn -0.9332 0.3095 -0.1825
vn -0.9121 0.3388 -0.2308
vn -0.1585 0.9784 0.1330
vn -0.1986 0.9687 0.1490
vn -0.0795 0.9901 0.1153
vn 0.1300 0.8247 -0.5505
vn 0.2269 0.8124 -0.5372
vn 0.2468 0.8161 -0.5226
vn 0.1251 0.9891 0.0777
vn 0.0938 0.9929 0.0729
vn 0.2055 0.9704 0.1268
vn 0.6849 0.7052 -0.1835
vn 0.7438 0.6608 -0.1003
vn 0.7430 0.6639 -0.0845
vn 0.2186 0.9149 0.3394
vn 0.2164 0.9165 0.3365
vn 0.2349 0.8619 0.4494
vn -0.0172 0.8990 0.4376
vn -0.0266 0.8961 0.4430
vn 0.0222 0.9257 0.3776
vn 0.0108 0.8917 0.4524
vn 0.0092 0.8902 0.4555
vn -0.7599 -0.6501 0.0054
vn -0.8419 0.5189 -0.1481
vn -0.7719 0.1165 -0.6250
vn 0.1773 -0.2010 -0.9634
vn 0.7160 0.6162 -0.3281
vn 0.6408 0.7051 -0.3037
vn 0.6603 -0.6473 0.3807
vn 0.1241 -0.0690 0.9899
vn -0.0729 -0.5426 0.8368
vn 0.0001 -0.9127 -0.4086
vn 0.0673 0.6397 -0.7657
vn 0.0746 0.6297 -0.7732
vn 0.3519 0.6297 -0.6925
vn 0.3752 -0.1779 -0.9097
vn 0.6202 -0.2134 -0.7549
vn 0.6190 -0.2031 -0.7587
vn 0.8039 0.5615 0.1964
vn 0.8125 0.5478 0.1995
vn 0.7593 0.4546 0.4656
vn 0.9576 0.1751 0.2286
vn 0.9047 -0.0622 0.4215
vn 0.8951 -0.0428 0.4438
vn 0.3518 -0.7483 0.5624
vn 0.1255 -0.6751 0.7269
vn 0.1085 -0.6855 0.7199
vn -0.2192 -0.0918 0.9714
vn 0.0795 -0.1026 0.9915
vn -0.2137 -0.1086 0.9708
vn -0.5863 -0.2232 -0.7787
vn -0.5714 -0.4977 -0.6525
vn -0.6217 -0.4862 -0.6141
vn -0.6079 0.3368 -0.7190
vn -0.5805 0.3253 -0.7465
vn -0.7496 0.0896 -0.6558
vn -0.9812 -0.0613 0.1832
vn -0.9007 -0.3180 0.2962
vn -0.8916 -0.3106 0.3296
vn -0.8973 -0.3911 0.2049
vn -0.8991 -0.3943 0.1900
vn -0.7370 -0.5864 0.3360
vn -0.9153 -0.0601 0.3984
vn -0.9133 -0.0448 0.4048
vn -0.7260 -0.1790 0.6640
vn 0.0368 -0.5825 0.8120
vn -0.3070 -0.5570 0.7717
vn 0.0367 -0.5768 0.8160
vn 0.3281 -0.2909 0.8987
vn 0.3291 -0.3024 0.8946
vn 0.6308 -0.2215 0.7436
vn 0.7723 0.1260 -0.6226
vn 0.9342 -0.0236 -0.3559
vn 0.7670 0.1008 -0.6337
vn 0.8408 0.2229 -0.4933
vn 0.8376 0.1873 -0.5132
vn 0.6050 0.3271 -0.7259
vn -0.4187 0.3611 -0.8332
vn -0.4240 0.4017 -0.8117
vn -0.7039 0.2802 -0.6526
vn -0.9062 -0.0810 -0.4151
vn -0.7343 0.0681 -0.6754
vn -0.9133 -0.0535 -0.4039
vn -0.0001 -0.9128 -0.4085
vn -0.0002 -0.9127 -0.4087
vn -0.0003 -0.9127 -0.4086
vn -0.0004 -0.9129 -0.4082
vn -0.0001 -0.9129 -0.4081
vn 0.9746 -0.0524 0.2176
vn 0.9886 -0.0367 0.1459
vn 0.9024 -0.1381 0.4081
vn 0.6827 -0.3888 0.6187
vn 0.5066 -0.4399 0.7415
vn 0.4432 -0.4396 0.7812
vn 0.2991 -0.3853 0.8730
vn 0.3676 -0.3910 0.8438
vn 0.0830 -0.4016 0.9120
vn 0.0463 -0.4532 0.8902
vn -0.1757 -0.4556 0.8727
vn -0.2482 -0.4414 0.8623
vn -0.8520 -0.1146 0.5109
vn -0.8127 -0.1525 0.5624
vn -0.9462 -0.0744 0.3149
vn -0.9253 -0.1407 0.3522
vn -0.9846 -0.1040 0.1407
vn -0.9948 -0.0682 0.0754
vn -0.7137 0.2673 -0.6475
vn -0.7639 0.2370 -0.6002
vn -0.5461 0.2692 -0.7933
vn -0.7038 0.2614 -0.6605
vn -0.5343 0.2699 -0.8010
vn -0.4714 0.3000 -0.8293
vn 0.5299 0.4711 -0.7052
vn 0.4669 0.4749 -0.7459
vn 0.7025 0.3762 -0.6041
vn 0.8318 0.1055 -0.5449
vn 0.9243 -0.0079 -0.3816
vn 0.9500 -0.0179 -0.3119
vt -1.125834 0.909998
vt -3.534074 -0.211214
vt -0.225164 -1.430000
vt -1.881196 -3.056148
vt 0.850253 -3.529593
vt 2.920173 -2.157216
vt 1.351002 0.519997
vt 3.304541 1.087657
vt 0.715286 3.517808
vt -2.238086 2.809340
vt -23.799999 0.432408
vt -18.299999 -0.741637
vt -18.299999 2.256360
vt -23.799999 3.486293
vt -18.299999 4.946812
vt -23.799999 7.259306
vt -18.299999 7.636859
vt -18.299999 10.326752
vt -23.799999 10.493693
vt -18.299999 12.073906
vt -23.799999 12.073905
vt -23.799999 -11.356573
vt -18.299999 -11.802065
vt -18.299999 -9.111701
vt -23.799999 -8.636177
vt -18.299999 -6.421513
vt -23.799999 -6.275450
vt -18.299999 -3.730690
vt -23.799999 -3.937835
vt -23.799999 -1.925465
vt -2.923085 2.067323
vt -0.889310 3.656852
vt -3.432633 1.808218
vt -3.637379 -1.053622
vt 23.800001 -0.221703
vt 5.750000 0.263132
vt 5.750000 -2.346870
vt 23.800001 -3.771477
vt 5.750000 -4.924221
vt 23.800001 -6.687092
vt 5.750000 -7.501315
vt 23.800001 -9.270277
vt 5.750000 -10.077722
vt 23.800001 -11.242990
vt 5.750000 -11.623894
vt 23.799999 10.329290
vt 5.750000 10.593660
vt 5.750000 8.017364
vt 23.800001 6.553217
vt 5.750000 5.440977
vt 23.800001 3.322520
vt 5.750000 2.864507
vt 0.000000 -0.718168
vt 0.353553 0.272021
vt 0.127198 2.464256
vt 0.122803 -3.200521
vt 0.000000 -8.342429
vt -0.139897 -6.282086
vt -0.282843 -10.045965
vt 0.000000 -10.684895
vt 0.000000 10.841772
vt -0.282843 10.521058
vt -0.139076 8.488660
vt 0.000000 6.469053
vt -0.282843 5.465240
vt 0.000000 3.969769
vt -0.282843 2.320093
vt 0.000000 1.245018
vt -0.109576 -1.202072
vt 3.127177 -1.154861
vt 2.611769 2.001401
vt 0.105560 3.379997
vt -2.128923 2.627326
vt -3.119714 -0.560752
vt 1.278038 -3.130921
vt -1.079659 -3.204537
vt -0.000000 0.000000
vt -0.600446 0.800000
vt -1.651222 0.000000
vt -0.000000 0.800000
vt -1.651222 0.800000
vt -0.600447 0.800000
vt -0.600441 0.800000
vt 4.128055 1.430000
vt 3.096225 2.332948
vt 3.333240 0.598872
vt 0.400000 0.080702
vt 0.000000 0.042126
vt 0.000000 -1.126321
vt 0.400000 -1.454850
vt 0.000000 -2.685014
vt 0.400000 -2.553717
vt 0.400000 -3.194880
vt 0.400000 2.947215
vt -0.000000 3.363389
vt 0.000000 2.522061
vt 0.000000 1.228126
vt 0.400000 1.469571
vt 1.907369 1.028881
vt 3.199763 1.106637
vt 2.524264 2.178874
vt 0.000000 -2.699746
vt 2.388000 -2.403720
vt 0.000000 -1.612399
vt 2.388000 -0.557444
vt 0.000000 -0.045238
vt 2.388000 1.467447
vt 0.000000 1.365479
vt 0.000000 2.562104
vt 2.388000 2.699801
vt 0.079816 0.970404
vt -0.722060 0.862931
vt -0.936490 -0.201273
vt 0.175100 -0.778070
vt 0.255891 -1.010304
vt 0.937126 0.285614
vt 0.000000 3.284569
vt -1.988000 3.669681
vt -1.988000 2.788086
vt 0.000000 2.119431
vt -1.988000 1.380148
vt 0.000000 1.041065
vt -1.988000 -0.262580
vt 0.000000 -0.378489
vt -1.988000 -1.832304
vt 0.000000 -2.164839
vt -1.988000 -3.374940
vt 0.000000 -3.580397
s 0
usemtl 128,128,128
f 43/1/1 51/2/1 26/3/1
f 26/3/1 51/2/1 41/4/1
f 41/4/2 14/5/2 26/3/2
f 26/3/2 14/5/2 6/6/2
f 26/3/1 6/6/1 17/7/1
f 17/7/1 6/6/1 5/8/1
f 5/8/3 15/9/3 17/7/3
f 17/7/2 15/9/2 43/1/2
f 43/1/1 15/9/1 45/10/1
f 43/1/1 45/10/1 51/2/1
f 50/11/4 52/12/5 48/13/6
f 50/11/7 48/13/8 40/14/9
f 40/14/10 48/13/11 31/15/12
f 40/14/13 31/15/14 12/16/15
f 12/16/16 31/15/17 11/17/18
f 12/16/19 11/17/20 3/18/21
f 12/16/22 3/18/23 4/19/24
f 4/19/25 3/18/26 1/20/27
f 4/19/28 1/20/29 2/21/30
f 2/22/31 1/23/32 9/24/33
f 2/22/34 9/24/35 10/25/36
f 10/25/37 9/24/38 20/26/39
f 10/25/40 20/26/41 13/27/42
f 13/27/43 20/26/44 46/28/45
f 13/27/46 46/28/47 38/29/48
f 38/29/49 46/28/50 49/30/51
f 49/30/52 46/28/53 52/12/54
f 49/30/55 52/12/56 50/11/57
f 8/31/58 12/32/58 4/33/58
f 8/31/59 4/33/60 2/34/61
f 51/35/62 53/36/63 46/37/64
f 51/35/65 46/37/66 41/38/67
f 41/38/68 46/37/69 20/39/70
f 41/38/71 20/39/72 14/40/73
f 14/40/74 20/39/75 9/41/76
f 14/40/77 9/41/77 6/42/78
f 6/42/79 9/41/80 1/43/79
f 6/42/81 1/43/82 5/44/83
f 5/44/84 1/43/85 3/45/86
f 5/46/87 3/47/88 11/48/89
f 5/46/90 11/48/91 15/49/92
f 15/49/93 11/48/94 31/50/95
f 15/49/96 31/50/97 45/51/98
f 45/51/99 31/50/100 48/52/101
f 45/51/102 48/52/103 51/35/104
f 51/35/105 48/52/106 53/36/107
f 52/53/108 53/54/109 48/55/110
f 52/53/111 46/56/112 53/54/113
usemtl 64,64,64
f 10/57/114 13/58/115 7/59/116
f 10/57/117 7/59/118 2/60/119
f 2/61/120 7/62/121 8/63/122
f 12/64/123 8/63/124 27/65/125
f 12/64/126 27/65/127 40/66/128
f 40/66/129 27/65/130 47/67/131
f 40/66/132 47/67/133 50/68/134
f 50/68/135 47/67/136 49/69/137
usemtl 255,255,255
f 49/70/138 47/71/138 27/72/138
f 49/70/139 27/72/139 8/73/139
f 49/70/140 8/73/140 7/74/140
f 49/70/141 7/74/141 38/75/141
f 38/75/142 7/74/142 13/76/142
usemtl 202,209,238
f 37/77/143 43/78/143 39/79/143
f 43/80/144 26/81/144 39/77/144
f 39/77/145 26/81/145 33/79/145
f 33/77/146 26/82/146 21/79/146
f 26/80/147 17/81/147 21/77/147
f 21/77/148 17/81/148 16/79/148
f 16/77/149 17/83/149 23/79/149
f 17/80/150 43/81/150 23/77/150
f 23/77/151 43/81/151 37/79/151
f 16/84/152 23/85/152 21/86/152
f 30/87/153 33/88/154 21/89/155
f 30/87/156 21/89/157 19/90/158
f 19/90/159 21/89/160 23/91/161
f 19/90/162 23/91/163 22/92/164
f 22/92/165 23/91/166 34/93/167
f 34/94/168 23/95/169 37/96/170
f 33/88/171 30/87/172 39/97/173
f 39/97/174 30/87/175 44/98/176
f 39/97/177 44/98/178 37/96/179
f 37/96/180 44/98/181 34/94/182
f 35/99/3 25/100/3 29/101/3
f 18/102/183 25/103/184 28/104/185
f 28/104/186 25/103/187 35/105/188
f 28/104/189 35/105/190 42/106/191
f 42/106/192 35/105/193 29/107/194
f 42/106/195 29/107/196 32/108/197
f 32/108/198 29/107/199 18/109/200
f 18/109/201 29/107/202 25/110/203
f 32/111/204 36/112/204 42/113/204
f 28/114/205 42/113/206 24/115/205
f 28/114/207 24/115/208 18/116/207
f 18/117/209 19/118/210 22/119/211
f 18/117/212 22/119/213 32/120/214
f 32/120/215 22/119/216 34/121/217
f 32/120/218 34/121/219 36/122/220
f 36/122/221 34/121/222 44/123/223
f 36/122/224 44/123/225 42/124/226
f 42/124/227 44/123/228 30/125/229
f 42/124/230 30/125/231 24/126/232
f 24/126/233 30/125/234 19/127/235
f 24/126/236 19/127/237 18/128/238
